<?xml version="1.0" encoding="utf-8"?>
<!-- Generator: Adobe Illustrator 22.1.0, SVG Export Plug-In . SVG Version: 6.00 Build 0)  -->
<svg version="1.1" xmlns="http://www.w3.org/2000/svg" xmlns:xlink="http://www.w3.org/1999/xlink" x="0px" y="0px"
	 viewBox="0 0 2000 2000" style="enable-background:new 0 0 2000 2000;" xml:space="preserve">
<style type="text/css">
	.st0{fill:#FFFFFF;}
	.st1{fill:#009FE3;}
	.st2{fill:none;stroke:url(#SVGID_1_);stroke-width:100;stroke-miterlimit:10;}
</style>
<g id="Ebene_2">
	<path class="st0" d="M1652,2000H348c-192.2,0-348-155.8-348-348V348C0,155.8,155.8,0,348,0h1304c192.2,0,348,155.8,348,348v1304
		C2000,1844.2,1844.2,2000,1652,2000z"/>
</g>
<g id="Ebene_5">
	<path class="st1" d="M1531,881.5v244.9c-7.9,27.3-18.7,53.9-32.5,79.6c-51.1,95.1-136.1,164.6-239.3,195.8l-23.9-79.4l-168.1,178.9
		l238.9,56.1l-23.8-79c80.6-24.4,151.9-68.3,208.8-127.4c12.3-12.8,23.8-26.2,34.7-40.4c1.8-2.3,3.5-4.6,5.2-6.9v343.7
		c0,82-66.5,148.5-148.5,148.5H847.2c-10.3-11-20-22.5-29-34.5c-7.6-10.1-14.7-20.5-21.3-31.2c-53.9-87.7-74.6-195.9-49.3-303.8
		l80.6,18.9l-70.9-235.1l-168,178.9l80.5,18.9c-24.3,103.4-13.3,207,25.1,298.1c4.2,10,8.7,19.8,13.6,29.4
		c10.5,20.9,22.5,41.1,35.9,60.3H616.5c-82,0-148.5-66.5-148.5-148.5v-709c25.9-18.8,53.7-34.4,83.1-46.5c9.8-4,19.7-7.7,29.8-10.9
		c35.7-11.5,73.3-18,111.8-19.2c108-3.4,210.7,35.5,289.3,109.4l-56.6,60.3l238.9,56.1l-70.8-235l-56.7,60.3
		c-94.2-88.5-217.3-135.1-346.6-131.1c-29.5,1-58.6,4.5-86.9,10.5c-10.3,2.2-20.5,4.7-30.6,7.6c-34.4,9.7-67.6,23.2-98.9,40.3
		c17.9-61.9,75-107.2,142.7-107.2h766c22.3,0,43.4,4.9,62.4,13.7C1495.8,770.3,1531,821.8,1531,881.5z"/>
	<linearGradient id="SVGID_1_" gradientUnits="userSpaceOnUse" x1="999.5" y1="166" x2="999.5" y2="733">
		<stop  offset="2.171734e-07" style="stop-color:#009FE3"/>
		<stop  offset="0.5053" style="stop-color:#009EE1"/>
		<stop  offset="0.6873" style="stop-color:#0099DA"/>
		<stop  offset="0.817" style="stop-color:#0091CF"/>
		<stop  offset="0.9211" style="stop-color:#0085BE"/>
		<stop  offset="1" style="stop-color:#0078AB"/>
	</linearGradient>
	<path class="st2" d="M1325.4,733V541.9c0-180-145.9-325.9-325.9-325.9S673.6,361.9,673.6,541.9V733"/>
</g>
</svg>
